<svg width="884" height="365" viewBox="0 0 884 365" fill="none" xmlns="http://www.w3.org/2000/svg">
<path d="M34.2459 59.44H72.9339V80.52H34.2459V59.44ZM36.2299 91.928H79.6299V114H7.46186V27.2H78.0179V49.272H36.2299V91.928ZM29.7819 20.132L46.1499 0.291993H72.8099L48.3819 20.132H29.7819ZM134.419 115.984C127.475 115.984 121.027 114.909 115.075 112.76C109.206 110.528 104.081 107.387 99.6995 103.336C95.4008 99.2853 92.0528 94.4907 89.6555 88.952C87.2581 83.4133 86.0595 77.296 86.0595 70.6C86.0595 63.904 87.2581 57.7867 89.6555 52.248C92.0528 46.7093 95.4008 41.9147 99.6995 37.864C104.081 33.8133 109.206 30.7133 115.075 28.564C121.027 26.332 127.475 25.216 134.419 25.216C142.934 25.216 150.457 26.704 156.987 29.68C163.601 32.656 169.057 36.9547 173.355 42.576L154.879 59.068C152.317 55.844 149.465 53.364 146.323 51.628C143.265 49.8093 139.793 48.9 135.907 48.9C132.849 48.9 130.079 49.396 127.599 50.388C125.119 51.38 122.97 52.8267 121.151 54.728C119.415 56.6293 118.051 58.944 117.059 61.672C116.067 64.3173 115.571 67.2933 115.571 70.6C115.571 73.9067 116.067 76.924 117.059 79.652C118.051 82.2973 119.415 84.5707 121.151 86.472C122.97 88.3733 125.119 89.82 127.599 90.812C130.079 91.804 132.849 92.3 135.907 92.3C139.793 92.3 143.265 91.432 146.323 89.696C149.465 87.8773 152.317 85.356 154.879 82.132L173.355 98.624C169.057 104.163 163.601 108.461 156.987 111.52C150.457 114.496 142.934 115.984 134.419 115.984ZM224.132 115.984C217.106 115.984 210.575 114.868 204.54 112.636C198.588 110.404 193.422 107.263 189.04 103.212C184.659 99.0787 181.228 94.2427 178.748 88.704C176.351 83.1653 175.152 77.1307 175.152 70.6C175.152 63.9867 176.351 57.952 178.748 52.496C181.228 46.9573 184.659 42.1627 189.04 38.112C193.422 33.9787 198.588 30.796 204.54 28.564C210.575 26.332 217.106 25.216 224.132 25.216C231.242 25.216 237.772 26.332 243.724 28.564C249.676 30.796 254.843 33.9787 259.224 38.112C263.606 42.1627 266.995 46.9573 269.392 52.496C271.872 57.952 273.112 63.9867 273.112 70.6C273.112 77.1307 271.872 83.1653 269.392 88.704C266.995 94.2427 263.606 99.0787 259.224 103.212C254.843 107.263 249.676 110.404 243.724 112.636C237.772 114.868 231.242 115.984 224.132 115.984ZM224.132 92.3C226.86 92.3 229.382 91.804 231.696 90.812C234.094 89.82 236.16 88.4147 237.896 86.596C239.715 84.6947 241.12 82.4213 242.112 79.776C243.104 77.048 243.6 73.9893 243.6 70.6C243.6 67.2107 243.104 64.1933 242.112 61.548C241.12 58.82 239.715 56.5467 237.896 54.728C236.16 52.8267 234.094 51.38 231.696 50.388C229.382 49.396 226.86 48.9 224.132 48.9C221.404 48.9 218.842 49.396 216.444 50.388C214.13 51.38 212.063 52.8267 210.244 54.728C208.508 56.5467 207.144 58.82 206.152 61.548C205.16 64.1933 204.664 67.2107 204.664 70.6C204.664 73.9893 205.16 77.048 206.152 79.776C207.144 82.4213 208.508 84.6947 210.244 86.596C212.063 88.4147 214.13 89.82 216.444 90.812C218.842 91.804 221.404 92.3 224.132 92.3ZM282.37 114V27.2H306.426L350.57 80.024H339.41V27.2H367.93V114H343.874L299.73 61.176H310.89V114H282.37ZM426.174 115.984C419.147 115.984 412.617 114.868 406.582 112.636C400.63 110.404 395.463 107.263 391.082 103.212C386.701 99.0787 383.27 94.2427 380.79 88.704C378.393 83.1653 377.194 77.1307 377.194 70.6C377.194 63.9867 378.393 57.952 380.79 52.496C383.27 46.9573 386.701 42.1627 391.082 38.112C395.463 33.9787 400.63 30.796 406.582 28.564C412.617 26.332 419.147 25.216 426.174 25.216C433.283 25.216 439.814 26.332 445.766 28.564C451.718 30.796 456.885 33.9787 461.266 38.112C465.647 42.1627 469.037 46.9573 471.434 52.496C473.914 57.952 475.154 63.9867 475.154 70.6C475.154 77.1307 473.914 83.1653 471.434 88.704C469.037 94.2427 465.647 99.0787 461.266 103.212C456.885 107.263 451.718 110.404 445.766 112.636C439.814 114.868 433.283 115.984 426.174 115.984ZM426.174 92.3C428.902 92.3 431.423 91.804 433.738 90.812C436.135 89.82 438.202 88.4147 439.938 86.596C441.757 84.6947 443.162 82.4213 444.154 79.776C445.146 77.048 445.642 73.9893 445.642 70.6C445.642 67.2107 445.146 64.1933 444.154 61.548C443.162 58.82 441.757 56.5467 439.938 54.728C438.202 52.8267 436.135 51.38 433.738 50.388C431.423 49.396 428.902 48.9 426.174 48.9C423.446 48.9 420.883 49.396 418.486 50.388C416.171 51.38 414.105 52.8267 412.286 54.728C410.55 56.5467 409.186 58.82 408.194 61.548C407.202 64.1933 406.706 67.2107 406.706 70.6C406.706 73.9893 407.202 77.048 408.194 79.776C409.186 82.4213 410.55 84.6947 412.286 86.596C414.105 88.4147 416.171 89.82 418.486 90.812C420.883 91.804 423.446 92.3 426.174 92.3ZM484.411 114V27.2H508.467L543.187 83.868H530.539L564.267 27.2H588.323L588.571 114H561.911L561.663 67.376H565.879L542.815 106.188H529.919L505.863 67.376H511.071V114H484.411ZM601.356 114V27.2H630.62V114H601.356ZM675.708 115.984C668.433 115.984 661.406 115.157 654.628 113.504C647.849 111.851 642.269 109.701 637.888 107.056L647.312 85.728C651.445 88.1253 656.033 90.068 661.076 91.556C666.201 92.9613 671.161 93.664 675.956 93.664C678.766 93.664 680.957 93.4987 682.528 93.168C684.181 92.7547 685.38 92.2173 686.124 91.556C686.868 90.812 687.24 89.944 687.24 88.952C687.24 87.3813 686.372 86.1413 684.636 85.232C682.9 84.3227 680.585 83.5787 677.692 83C674.881 82.3387 671.781 81.6773 668.392 81.016C665.002 80.272 661.572 79.3213 658.1 78.164C654.71 77.0067 651.569 75.4773 648.676 73.576C645.865 71.6747 643.592 69.1947 641.856 66.136C640.12 62.9947 639.252 59.1093 639.252 54.48C639.252 49.1067 640.74 44.2293 643.716 39.848C646.774 35.384 651.28 31.8293 657.232 29.184C663.266 26.5387 670.748 25.216 679.676 25.216C685.545 25.216 691.332 25.836 697.036 27.076C702.74 28.316 707.865 30.2173 712.412 32.78L703.608 53.984C699.309 51.8347 695.134 50.2227 691.084 49.148C687.116 48.0733 683.23 47.536 679.428 47.536C676.617 47.536 674.385 47.784 672.732 48.28C671.078 48.776 669.88 49.4373 669.136 50.264C668.474 51.0907 668.144 52 668.144 52.992C668.144 54.48 669.012 55.6787 670.748 56.588C672.484 57.4147 674.757 58.1173 677.568 58.696C680.461 59.2747 683.602 59.8947 686.992 60.556C690.464 61.2173 693.894 62.1267 697.284 63.284C700.673 64.4413 703.773 65.9707 706.584 67.872C709.477 69.7733 711.792 72.2533 713.528 75.312C715.264 78.3707 716.132 82.1733 716.132 86.72C716.132 92.0107 714.602 96.888 711.544 101.352C708.568 105.733 704.104 109.288 698.152 112.016C692.2 114.661 684.718 115.984 675.708 115.984ZM750.26 59.44H788.948V80.52H750.26V59.44ZM752.244 91.928H795.644V114H723.476V27.2H794.032V49.272H752.244V91.928ZM802.445 114V96.02L850.805 39.724L854.401 49.892H803.685V27.2H880.193V45.18L831.833 101.476L828.237 91.308H882.177V114H802.445ZM291.07 224.984C284.043 224.984 277.554 223.909 271.602 221.76C265.732 219.528 260.607 216.387 256.226 212.336C251.927 208.285 248.579 203.491 246.182 197.952C243.784 192.413 242.586 186.296 242.586 179.6C242.586 172.904 243.784 166.787 246.182 161.248C248.579 155.709 251.968 150.915 256.35 146.864C260.731 142.813 265.898 139.713 271.85 137.564C277.884 135.332 284.498 134.216 291.69 134.216C300.287 134.216 307.934 135.663 314.63 138.556C321.408 141.449 326.988 145.583 331.37 150.956L312.646 167.448C309.918 164.307 306.942 161.951 303.718 160.38C300.576 158.727 297.063 157.9 293.178 157.9C289.954 157.9 287.019 158.396 284.374 159.388C281.811 160.38 279.62 161.827 277.802 163.728C275.983 165.629 274.578 167.903 273.586 170.548C272.594 173.193 272.098 176.211 272.098 179.6C272.098 182.824 272.594 185.8 273.586 188.528C274.578 191.173 275.983 193.447 277.802 195.348C279.62 197.249 281.77 198.737 284.25 199.812C286.812 200.804 289.664 201.3 292.806 201.3C296.112 201.3 299.336 200.763 302.478 199.688C305.619 198.531 308.967 196.588 312.522 193.86L328.89 213.948C323.599 217.503 317.564 220.231 310.786 222.132C304.007 224.033 297.435 224.984 291.07 224.984ZM303.47 210.228V177.244H328.89V213.948L303.47 210.228ZM339.995 223V136.2H381.783C389.884 136.2 396.869 137.523 402.739 140.168C408.691 142.813 413.279 146.616 416.503 151.576C419.727 156.453 421.339 162.24 421.339 168.936C421.339 175.632 419.727 181.419 416.503 186.296C413.279 191.091 408.691 194.769 402.739 197.332C396.869 199.895 389.884 201.176 381.783 201.176H356.239L369.259 189.148V223H339.995ZM391.951 223L370.623 191.38H401.623L423.199 223H391.951ZM369.259 192.372L356.239 179.104H379.923C383.973 179.104 386.949 178.195 388.851 176.376C390.835 174.557 391.827 172.077 391.827 168.936C391.827 165.795 390.835 163.315 388.851 161.496C386.949 159.677 383.973 158.768 379.923 158.768H356.239L369.259 145.5V192.372ZM476.533 224.984C469.506 224.984 462.976 223.868 456.941 221.636C450.989 219.404 445.822 216.263 441.441 212.212C437.06 208.079 433.629 203.243 431.149 197.704C428.752 192.165 427.553 186.131 427.553 179.6C427.553 172.987 428.752 166.952 431.149 161.496C433.629 155.957 437.06 151.163 441.441 147.112C445.822 142.979 450.989 139.796 456.941 137.564C462.976 135.332 469.506 134.216 476.533 134.216C483.642 134.216 490.173 135.332 496.125 137.564C502.077 139.796 507.244 142.979 511.625 147.112C516.006 151.163 519.396 155.957 521.793 161.496C524.273 166.952 525.513 172.987 525.513 179.6C525.513 186.131 524.273 192.165 521.793 197.704C519.396 203.243 516.006 208.079 511.625 212.212C507.244 216.263 502.077 219.404 496.125 221.636C490.173 223.868 483.642 224.984 476.533 224.984ZM476.533 201.3C479.261 201.3 481.782 200.804 484.097 199.812C486.494 198.82 488.561 197.415 490.297 195.596C492.116 193.695 493.521 191.421 494.513 188.776C495.505 186.048 496.001 182.989 496.001 179.6C496.001 176.211 495.505 173.193 494.513 170.548C493.521 167.82 492.116 165.547 490.297 163.728C488.561 161.827 486.494 160.38 484.097 159.388C481.782 158.396 479.261 157.9 476.533 157.9C473.805 157.9 471.242 158.396 468.845 159.388C466.53 160.38 464.464 161.827 462.645 163.728C460.909 165.547 459.545 167.82 458.553 170.548C457.561 173.193 457.065 176.211 457.065 179.6C457.065 182.989 457.561 186.048 458.553 188.776C459.545 191.421 460.909 193.695 462.645 195.596C464.464 197.415 466.53 198.82 468.845 199.812C471.242 200.804 473.805 201.3 476.533 201.3ZM567.134 224.984C559.86 224.984 552.833 224.157 546.054 222.504C539.276 220.851 533.696 218.701 529.314 216.056L538.738 194.728C542.872 197.125 547.46 199.068 552.502 200.556C557.628 201.961 562.588 202.664 567.382 202.664C570.193 202.664 572.384 202.499 573.954 202.168C575.608 201.755 576.806 201.217 577.55 200.556C578.294 199.812 578.666 198.944 578.666 197.952C578.666 196.381 577.798 195.141 576.062 194.232C574.326 193.323 572.012 192.579 569.118 192C566.308 191.339 563.208 190.677 559.818 190.016C556.429 189.272 552.998 188.321 549.526 187.164C546.137 186.007 542.996 184.477 540.102 182.576C537.292 180.675 535.018 178.195 533.282 175.136C531.546 171.995 530.678 168.109 530.678 163.48C530.678 158.107 532.166 153.229 535.142 148.848C538.201 144.384 542.706 140.829 548.658 138.184C554.693 135.539 562.174 134.216 571.102 134.216C576.972 134.216 582.758 134.836 588.462 136.076C594.166 137.316 599.292 139.217 603.838 141.78L595.034 162.984C590.736 160.835 586.561 159.223 582.51 158.148C578.542 157.073 574.657 156.536 570.854 156.536C568.044 156.536 565.812 156.784 564.158 157.28C562.505 157.776 561.306 158.437 560.562 159.264C559.901 160.091 559.57 161 559.57 161.992C559.57 163.48 560.438 164.679 562.174 165.588C563.91 166.415 566.184 167.117 568.994 167.696C571.888 168.275 575.029 168.895 578.418 169.556C581.89 170.217 585.321 171.127 588.71 172.284C592.1 173.441 595.2 174.971 598.01 176.872C600.904 178.773 603.218 181.253 604.954 184.312C606.69 187.371 607.558 191.173 607.558 195.72C607.558 201.011 606.029 205.888 602.97 210.352C599.994 214.733 595.53 218.288 589.578 221.016C583.626 223.661 576.145 224.984 567.134 224.984Z" fill="white"/>
<path d="M375.219 257L381.204 243.7H383.636L389.64 257H387.056L381.907 245.011H382.895L377.765 257H375.219ZM377.974 253.922L378.639 251.984H385.821L386.486 253.922H377.974ZM394.56 257L388.746 243.7H391.425L396.612 255.727H395.073L400.317 243.7H402.787L396.992 257H394.56ZM406.47 249.229H413.082V251.262H406.47V249.229ZM406.66 254.929H414.165V257H404.19V243.7H413.899V245.771H406.66V254.929ZM423.075 257.19C422.061 257.19 421.118 257.025 420.244 256.696C419.382 256.354 418.629 255.879 417.983 255.271C417.349 254.65 416.855 253.922 416.501 253.086C416.146 252.25 415.969 251.338 415.969 250.35C415.969 249.362 416.146 248.45 416.501 247.614C416.855 246.778 417.356 246.056 418.002 245.448C418.648 244.827 419.401 244.352 420.263 244.023C421.124 243.681 422.068 243.51 423.094 243.51C424.183 243.51 425.177 243.7 426.077 244.08C426.976 244.447 427.736 244.998 428.357 245.733L426.761 247.234C426.279 246.715 425.741 246.328 425.146 246.075C424.55 245.809 423.904 245.676 423.208 245.676C422.511 245.676 421.871 245.79 421.289 246.018C420.719 246.246 420.218 246.569 419.788 246.987C419.37 247.405 419.04 247.899 418.8 248.469C418.572 249.039 418.458 249.666 418.458 250.35C418.458 251.034 418.572 251.661 418.8 252.231C419.04 252.801 419.37 253.295 419.788 253.713C420.218 254.131 420.719 254.454 421.289 254.682C421.871 254.91 422.511 255.024 423.208 255.024C423.904 255.024 424.55 254.897 425.146 254.644C425.741 254.378 426.279 253.979 426.761 253.447L428.357 254.967C427.736 255.689 426.976 256.24 426.077 256.62C425.177 257 424.177 257.19 423.075 257.19ZM435.974 257V243.7H438.007L446.348 253.941H445.341V243.7H447.792V257H445.759L437.418 246.759H438.425V257H435.974ZM457.588 257.19C456.55 257.19 455.593 257.019 454.719 256.677C453.845 256.335 453.085 255.86 452.439 255.252C451.793 254.631 451.293 253.909 450.938 253.086C450.584 252.25 450.406 251.338 450.406 250.35C450.406 249.362 450.584 248.456 450.938 247.633C451.293 246.797 451.793 246.075 452.439 245.467C453.085 244.846 453.845 244.365 454.719 244.023C455.593 243.681 456.543 243.51 457.569 243.51C458.608 243.51 459.558 243.681 460.419 244.023C461.293 244.365 462.053 244.846 462.699 245.467C463.345 246.075 463.846 246.797 464.2 247.633C464.555 248.456 464.732 249.362 464.732 250.35C464.732 251.338 464.555 252.25 464.2 253.086C463.846 253.922 463.345 254.644 462.699 255.252C462.053 255.86 461.293 256.335 460.419 256.677C459.558 257.019 458.614 257.19 457.588 257.19ZM457.569 255.024C458.241 255.024 458.861 254.91 459.431 254.682C460.001 254.454 460.495 254.131 460.913 253.713C461.331 253.282 461.654 252.788 461.882 252.231C462.123 251.661 462.243 251.034 462.243 250.35C462.243 249.666 462.123 249.045 461.882 248.488C461.654 247.918 461.331 247.424 460.913 247.006C460.495 246.575 460.001 246.246 459.431 246.018C458.861 245.79 458.241 245.676 457.569 245.676C456.898 245.676 456.277 245.79 455.707 246.018C455.15 246.246 454.656 246.575 454.225 247.006C453.807 247.424 453.478 247.918 453.237 248.488C453.009 249.045 452.895 249.666 452.895 250.35C452.895 251.021 453.009 251.642 453.237 252.212C453.478 252.782 453.807 253.282 454.225 253.713C454.643 254.131 455.137 254.454 455.707 254.682C456.277 254.91 456.898 255.024 457.569 255.024ZM469.863 257V245.79H465.455V243.7H476.741V245.79H472.333V257H469.863ZM478.595 257V243.7H484.067C485.245 243.7 486.252 243.89 487.088 244.27C487.936 244.65 488.589 245.195 489.045 245.904C489.501 246.613 489.729 247.456 489.729 248.431C489.729 249.406 489.501 250.249 489.045 250.958C488.589 251.655 487.936 252.193 487.088 252.573C486.252 252.94 485.245 253.124 484.067 253.124H479.963L481.065 252.003V257H478.595ZM487.297 257L483.934 252.174H486.575L489.957 257H487.297ZM481.065 252.269L479.963 251.091H483.953C485.042 251.091 485.859 250.857 486.404 250.388C486.961 249.919 487.24 249.267 487.24 248.431C487.24 247.582 486.961 246.93 486.404 246.474C485.859 246.018 485.042 245.79 483.953 245.79H479.963L481.065 244.574V252.269ZM494.772 249.229H501.384V251.262H494.772V249.229ZM494.962 254.929H502.467V257H492.492V243.7H502.201V245.771H494.962V254.929Z" fill="white"/>
<path d="M118.081 294.512C116.267 294.512 114.593 294.235 113.057 293.68C111.542 293.104 110.219 292.293 109.089 291.248C107.979 290.203 107.115 288.965 106.497 287.536C105.878 286.107 105.569 284.528 105.569 282.8C105.569 281.072 105.878 279.493 106.497 278.064C107.115 276.635 107.99 275.397 109.121 274.352C110.251 273.307 111.585 272.507 113.121 271.952C114.678 271.376 116.385 271.088 118.241 271.088C120.459 271.088 122.433 271.461 124.161 272.208C125.91 272.955 127.35 274.021 128.481 275.408L123.649 279.664C122.945 278.853 122.177 278.245 121.345 277.84C120.534 277.413 119.627 277.2 118.625 277.2C117.793 277.2 117.035 277.328 116.353 277.584C115.691 277.84 115.126 278.213 114.657 278.704C114.187 279.195 113.825 279.781 113.569 280.464C113.313 281.147 113.185 281.925 113.185 282.8C113.185 283.632 113.313 284.4 113.569 285.104C113.825 285.787 114.187 286.373 114.657 286.864C115.126 287.355 115.681 287.739 116.321 288.016C116.982 288.272 117.718 288.4 118.529 288.4C119.382 288.4 120.214 288.261 121.025 287.984C121.835 287.685 122.699 287.184 123.617 286.48L127.841 291.664C126.475 292.581 124.918 293.285 123.169 293.776C121.419 294.267 119.723 294.512 118.081 294.512ZM121.281 290.704V282.192H127.841V291.664L121.281 290.704ZM132.658 294V271.6H143.442C145.533 271.6 147.336 271.941 148.85 272.624C150.386 273.307 151.57 274.288 152.402 275.568C153.234 276.827 153.65 278.32 153.65 280.048C153.65 281.776 153.234 283.269 152.402 284.528C151.57 285.765 150.386 286.715 148.85 287.376C147.336 288.037 145.533 288.368 143.442 288.368H136.85L140.21 285.264V294H132.658ZM146.066 294L140.562 285.84H148.562L154.13 294H146.066ZM140.21 286.096L136.85 282.672H142.962C144.008 282.672 144.776 282.437 145.266 281.968C145.778 281.499 146.034 280.859 146.034 280.048C146.034 279.237 145.778 278.597 145.266 278.128C144.776 277.659 144.008 277.424 142.962 277.424H136.85L140.21 274V286.096ZM155.67 294L165.462 271.6H172.886L182.678 294H174.87L167.638 275.184H170.582L163.35 294H155.67ZM161.494 290.096L163.414 284.656H173.718L175.638 290.096H161.494ZM185.483 294V271.6H191.691L203.083 285.232H200.203V271.6H207.563V294H201.355L189.963 280.368H192.843V294H185.483ZM212.802 294V271.6H223.842C226.338 271.6 228.535 272.059 230.434 272.976C232.333 273.872 233.815 275.152 234.882 276.816C235.949 278.48 236.482 280.464 236.482 282.768C236.482 285.093 235.949 287.099 234.882 288.784C233.815 290.448 232.333 291.739 230.434 292.656C228.535 293.552 226.338 294 223.842 294H212.802ZM220.354 288.112H223.522C224.589 288.112 225.517 287.909 226.306 287.504C227.117 287.099 227.746 286.501 228.194 285.712C228.642 284.901 228.866 283.92 228.866 282.768C228.866 281.637 228.642 280.677 228.194 279.888C227.746 279.099 227.117 278.501 226.306 278.096C225.517 277.691 224.589 277.488 223.522 277.488H220.354V288.112ZM247.752 279.92H257.736V285.36H247.752V279.92ZM248.264 288.304H259.464V294H240.84V271.6H259.048V277.296H248.264V288.304ZM282.205 294L272.733 271.6H280.861L288.573 290.512H283.741L291.677 271.6H299.101L289.629 294H282.205ZM308.364 279.92H318.348V285.36H308.364V279.92ZM308.876 288.304H320.076V294H301.452V271.6H319.66V277.296H308.876V288.304ZM324.583 294V271.6H330.791L342.183 285.232H339.303V271.6H346.663V294H340.455L329.063 280.368H331.943V294H324.583ZM356.766 294V277.456H350.206V271.6H370.878V277.456H364.318V294H356.766ZM381.352 279.92H391.336V285.36H381.352V279.92ZM381.864 288.304H393.064V294H374.44V271.6H392.648V277.296H381.864V288.304ZM408.765 294V271.6H419.805C422.301 271.6 424.498 272.059 426.397 272.976C428.295 273.872 429.778 275.152 430.845 276.816C431.911 278.48 432.445 280.464 432.445 282.768C432.445 285.093 431.911 287.099 430.845 288.784C429.778 290.448 428.295 291.739 426.397 292.656C424.498 293.552 422.301 294 419.805 294H408.765ZM416.317 288.112H419.485C420.551 288.112 421.479 287.909 422.269 287.504C423.079 287.099 423.709 286.501 424.157 285.712C424.605 284.901 424.829 283.92 424.829 282.768C424.829 281.637 424.605 280.677 424.157 279.888C423.709 279.099 423.079 278.501 422.269 278.096C421.479 277.691 420.551 277.488 419.485 277.488H416.317V288.112ZM443.714 279.92H453.698V285.36H443.714V279.92ZM444.226 288.304H455.426V294H436.802V271.6H455.01V277.296H444.226V288.304ZM471.127 294V271.6H478.679V288.144H488.791V294H471.127ZM492.477 294V271.6H500.029V294H492.477ZM517.009 294.512C515.195 294.512 513.51 294.224 511.953 293.648C510.417 293.072 509.083 292.261 507.953 291.216C506.822 290.149 505.937 288.901 505.297 287.472C504.678 286.043 504.369 284.485 504.369 282.8C504.369 281.093 504.678 279.536 505.297 278.128C505.937 276.699 506.822 275.461 507.953 274.416C509.083 273.349 510.417 272.528 511.953 271.952C513.51 271.376 515.195 271.088 517.009 271.088C518.843 271.088 520.529 271.376 522.065 271.952C523.601 272.528 524.934 273.349 526.065 274.416C527.195 275.461 528.07 276.699 528.689 278.128C529.329 279.536 529.649 281.093 529.649 282.8C529.649 284.485 529.329 286.043 528.689 287.472C528.07 288.901 527.195 290.149 526.065 291.216C524.934 292.261 523.601 293.072 522.065 293.648C520.529 294.224 518.843 294.512 517.009 294.512ZM524.337 299.664C523.291 299.664 522.321 299.557 521.425 299.344C520.529 299.152 519.654 298.821 518.801 298.352C517.969 297.883 517.094 297.232 516.177 296.4C515.259 295.589 514.235 294.576 513.105 293.36L520.913 291.44C521.425 292.229 521.862 292.837 522.225 293.264C522.587 293.691 522.939 293.989 523.281 294.16C523.643 294.331 524.049 294.416 524.497 294.416C525.606 294.416 526.641 293.936 527.601 292.976L530.865 296.816C529.265 298.715 527.089 299.664 524.337 299.664ZM517.009 288.4C517.713 288.4 518.363 288.272 518.961 288.016C519.579 287.76 520.113 287.397 520.561 286.928C521.03 286.437 521.393 285.851 521.649 285.168C521.905 284.464 522.033 283.675 522.033 282.8C522.033 281.925 521.905 281.147 521.649 280.464C521.393 279.76 521.03 279.173 520.561 278.704C520.113 278.213 519.579 277.84 518.961 277.584C518.363 277.328 517.713 277.2 517.009 277.2C516.305 277.2 515.643 277.328 515.025 277.584C514.427 277.84 513.894 278.213 513.425 278.704C512.977 279.173 512.625 279.76 512.369 280.464C512.113 281.147 511.985 281.925 511.985 282.8C511.985 283.675 512.113 284.464 512.369 285.168C512.625 285.851 512.977 286.437 513.425 286.928C513.894 287.397 514.427 287.76 515.025 288.016C515.643 288.272 516.305 288.4 517.009 288.4ZM544.71 294.512C541.275 294.512 538.598 293.584 536.678 291.728C534.758 289.872 533.798 287.269 533.798 283.92V271.6H541.35V283.696C541.35 285.403 541.659 286.619 542.278 287.344C542.896 288.048 543.728 288.4 544.774 288.4C545.84 288.4 546.672 288.048 547.27 287.344C547.888 286.619 548.198 285.403 548.198 283.696V271.6H555.622V283.92C555.622 287.269 554.662 289.872 552.742 291.728C550.822 293.584 548.144 294.512 544.71 294.512ZM560.683 294V271.6H568.235V294H560.683ZM573.471 294V271.6H584.511C587.007 271.6 589.204 272.059 591.103 272.976C593.002 273.872 594.484 275.152 595.551 276.816C596.618 278.48 597.151 280.464 597.151 282.768C597.151 285.093 596.618 287.099 595.551 288.784C594.484 290.448 593.002 291.739 591.103 292.656C589.204 293.552 587.007 294 584.511 294H573.471ZM581.023 288.112H584.191C585.258 288.112 586.186 287.909 586.975 287.504C587.786 287.099 588.415 286.501 588.863 285.712C589.311 284.901 589.535 283.92 589.535 282.768C589.535 281.637 589.311 280.677 588.863 279.888C588.415 279.099 587.786 278.501 586.975 278.096C586.186 277.691 585.258 277.488 584.191 277.488H581.023V288.112ZM598.764 294L608.556 271.6H615.98L625.772 294H617.964L610.732 275.184H613.676L606.444 294H598.764ZM604.588 290.096L606.508 284.656H616.812L618.732 290.096H604.588ZM632.316 294V277.456H625.756V271.6H646.428V277.456H639.868V294H632.316ZM649.99 294V271.6H657.542V294H649.99ZM674.521 294.512C672.708 294.512 671.022 294.224 669.465 293.648C667.929 293.072 666.596 292.261 665.465 291.216C664.334 290.149 663.449 288.901 662.809 287.472C662.19 286.043 661.881 284.485 661.881 282.8C661.881 281.093 662.19 279.536 662.809 278.128C663.449 276.699 664.334 275.461 665.465 274.416C666.596 273.349 667.929 272.528 669.465 271.952C671.022 271.376 672.708 271.088 674.521 271.088C676.356 271.088 678.041 271.376 679.577 271.952C681.113 272.528 682.446 273.349 683.577 274.416C684.708 275.461 685.582 276.699 686.201 278.128C686.841 279.536 687.161 281.093 687.161 282.8C687.161 284.485 686.841 286.043 686.201 287.472C685.582 288.901 684.708 290.149 683.577 291.216C682.446 292.261 681.113 293.072 679.577 293.648C678.041 294.224 676.356 294.512 674.521 294.512ZM674.521 288.4C675.225 288.4 675.876 288.272 676.473 288.016C677.092 287.76 677.625 287.397 678.073 286.928C678.542 286.437 678.905 285.851 679.161 285.168C679.417 284.464 679.545 283.675 679.545 282.8C679.545 281.925 679.417 281.147 679.161 280.464C678.905 279.76 678.542 279.173 678.073 278.704C677.625 278.213 677.092 277.84 676.473 277.584C675.876 277.328 675.225 277.2 674.521 277.2C673.817 277.2 673.156 277.328 672.537 277.584C671.94 277.84 671.406 278.213 670.937 278.704C670.489 279.173 670.137 279.76 669.881 280.464C669.625 281.147 669.497 281.925 669.497 282.8C669.497 283.675 669.625 284.464 669.881 285.168C670.137 285.851 670.489 286.437 670.937 286.928C671.406 287.397 671.94 287.76 672.537 288.016C673.156 288.272 673.817 288.4 674.521 288.4ZM691.502 294V271.6H697.71L709.102 285.232H706.222V271.6H713.582V294H707.374L695.982 280.368H698.862V294H691.502ZM730.015 294V271.6H741.055C743.551 271.6 745.748 272.059 747.647 272.976C749.545 273.872 751.028 275.152 752.095 276.816C753.161 278.48 753.695 280.464 753.695 282.768C753.695 285.093 753.161 287.099 752.095 288.784C751.028 290.448 749.545 291.739 747.647 292.656C745.748 293.552 743.551 294 741.055 294H730.015ZM737.567 288.112H740.735C741.801 288.112 742.729 287.909 743.519 287.504C744.329 287.099 744.959 286.501 745.407 285.712C745.855 284.901 746.079 283.92 746.079 282.768C746.079 281.637 745.855 280.677 745.407 279.888C744.959 279.099 744.329 278.501 743.519 278.096C742.729 277.691 741.801 277.488 740.735 277.488H737.567V288.112ZM764.964 279.92H774.948V285.36H764.964V279.92ZM765.476 288.304H776.676V294H758.052V271.6H776.26V277.296H765.476V288.304ZM148.452 326.512C146.66 326.512 144.996 326.235 143.46 325.68C141.945 325.104 140.622 324.293 139.492 323.248C138.382 322.203 137.518 320.965 136.9 319.536C136.281 318.107 135.972 316.528 135.972 314.8C135.972 313.072 136.281 311.493 136.9 310.064C137.518 308.635 138.382 307.397 139.492 306.352C140.622 305.307 141.945 304.507 143.46 303.952C144.996 303.376 146.66 303.088 148.452 303.088C150.649 303.088 152.59 303.472 154.276 304.24C155.982 305.008 157.39 306.117 158.5 307.568L153.732 311.824C153.07 310.992 152.334 310.352 151.524 309.904C150.734 309.435 149.838 309.2 148.836 309.2C148.046 309.2 147.332 309.328 146.692 309.584C146.052 309.84 145.497 310.213 145.028 310.704C144.58 311.195 144.228 311.792 143.972 312.496C143.716 313.179 143.588 313.947 143.588 314.8C143.588 315.653 143.716 316.432 143.972 317.136C144.228 317.819 144.58 318.405 145.028 318.896C145.497 319.387 146.052 319.76 146.692 320.016C147.332 320.272 148.046 320.4 148.836 320.4C149.838 320.4 150.734 320.176 151.524 319.728C152.334 319.259 153.07 318.608 153.732 317.776L158.5 322.032C157.39 323.461 155.982 324.571 154.276 325.36C152.59 326.128 150.649 326.512 148.452 326.512ZM176.808 303.6H184.36V326H176.808V303.6ZM169.832 326H162.28V303.6H169.832V326ZM177.32 317.744H169.32V311.536H177.32V317.744ZM187.167 326L196.959 303.6H204.383L214.175 326H206.367L199.135 307.184H202.079L194.847 326H187.167ZM192.991 322.096L194.911 316.656H205.215L207.135 322.096H192.991ZM216.98 326V303.6H227.764C229.855 303.6 231.658 303.941 233.172 304.624C234.708 305.307 235.892 306.288 236.724 307.568C237.556 308.827 237.972 310.32 237.972 312.048C237.972 313.776 237.556 315.269 236.724 316.528C235.892 317.765 234.708 318.715 233.172 319.376C231.658 320.037 229.855 320.368 227.764 320.368H221.172L224.532 317.264V326H216.98ZM230.388 326L224.884 317.84H232.884L238.452 326H230.388ZM224.532 318.096L221.172 314.672H227.284C228.33 314.672 229.098 314.437 229.588 313.968C230.1 313.499 230.356 312.859 230.356 312.048C230.356 311.237 230.1 310.597 229.588 310.128C229.098 309.659 228.33 309.424 227.284 309.424H221.172L224.532 306V318.096ZM242.424 326V303.6H249.976V326H242.424ZM266.956 326.512C265.142 326.512 263.457 326.224 261.9 325.648C260.364 325.072 259.03 324.261 257.9 323.216C256.769 322.149 255.884 320.901 255.244 319.472C254.625 318.043 254.316 316.485 254.316 314.8C254.316 313.093 254.625 311.536 255.244 310.128C255.884 308.699 256.769 307.461 257.9 306.416C259.03 305.349 260.364 304.528 261.9 303.952C263.457 303.376 265.142 303.088 266.956 303.088C268.79 303.088 270.476 303.376 272.012 303.952C273.548 304.528 274.881 305.349 276.012 306.416C277.142 307.461 278.017 308.699 278.636 310.128C279.276 311.536 279.596 313.093 279.596 314.8C279.596 316.485 279.276 318.043 278.636 319.472C278.017 320.901 277.142 322.149 276.012 323.216C274.881 324.261 273.548 325.072 272.012 325.648C270.476 326.224 268.79 326.512 266.956 326.512ZM266.956 320.4C267.66 320.4 268.31 320.272 268.908 320.016C269.526 319.76 270.06 319.397 270.508 318.928C270.977 318.437 271.34 317.851 271.596 317.168C271.852 316.464 271.98 315.675 271.98 314.8C271.98 313.925 271.852 313.147 271.596 312.464C271.34 311.76 270.977 311.173 270.508 310.704C270.06 310.213 269.526 309.84 268.908 309.584C268.31 309.328 267.66 309.2 266.956 309.2C266.252 309.2 265.59 309.328 264.972 309.584C264.374 309.84 263.841 310.213 263.372 310.704C262.924 311.173 262.572 311.76 262.316 312.464C262.06 313.147 261.932 313.925 261.932 314.8C261.932 315.675 262.06 316.464 262.316 317.168C262.572 317.851 262.924 318.437 263.372 318.928C263.841 319.397 264.374 319.76 264.972 320.016C265.59 320.272 266.252 320.4 266.956 320.4ZM288.488 326V309.456H281.928V303.6H302.6V309.456H296.04V326H288.488ZM314.514 326.512C312.636 326.512 310.823 326.299 309.074 325.872C307.324 325.445 305.884 324.891 304.754 324.208L307.186 318.704C308.252 319.323 309.436 319.824 310.738 320.208C312.06 320.571 313.34 320.752 314.578 320.752C315.303 320.752 315.868 320.709 316.274 320.624C316.7 320.517 317.01 320.379 317.202 320.208C317.394 320.016 317.49 319.792 317.49 319.536C317.49 319.131 317.266 318.811 316.818 318.576C316.37 318.341 315.772 318.149 315.026 318C314.3 317.829 313.5 317.659 312.626 317.488C311.751 317.296 310.866 317.051 309.97 316.752C309.095 316.453 308.284 316.059 307.538 315.568C306.812 315.077 306.226 314.437 305.778 313.648C305.33 312.837 305.106 311.835 305.106 310.64C305.106 309.253 305.49 307.995 306.258 306.864C307.047 305.712 308.21 304.795 309.746 304.112C311.303 303.429 313.234 303.088 315.538 303.088C317.052 303.088 318.546 303.248 320.018 303.568C321.49 303.888 322.812 304.379 323.986 305.04L321.714 310.512C320.604 309.957 319.527 309.541 318.482 309.264C317.458 308.987 316.455 308.848 315.474 308.848C314.748 308.848 314.172 308.912 313.746 309.04C313.319 309.168 313.01 309.339 312.818 309.552C312.647 309.765 312.562 310 312.562 310.256C312.562 310.64 312.786 310.949 313.234 311.184C313.682 311.397 314.268 311.579 314.994 311.728C315.74 311.877 316.551 312.037 317.426 312.208C318.322 312.379 319.207 312.613 320.082 312.912C320.956 313.211 321.756 313.605 322.482 314.096C323.228 314.587 323.826 315.227 324.274 316.016C324.722 316.805 324.946 317.787 324.946 318.96C324.946 320.325 324.551 321.584 323.762 322.736C322.994 323.867 321.842 324.784 320.306 325.488C318.77 326.171 316.839 326.512 314.514 326.512ZM346.899 311.92H356.883V317.36H346.899V311.92ZM347.411 320.304H358.611V326H339.987V303.6H358.195V309.296H347.411V320.304ZM345.747 301.776L349.971 296.656H356.851L350.547 301.776H345.747ZM363.118 326V303.6H370.67V320.144H380.782V326H363.118ZM391.38 311.92H401.364V317.36H391.38V311.92ZM391.892 320.304H403.092V326H384.468V303.6H402.676V309.296H391.892V320.304ZM390.228 301.776L394.452 296.656H401.332L395.028 301.776H390.228ZM414.327 326L404.855 303.6H412.983L420.695 322.512H415.863L423.799 303.6H431.223L421.751 326H414.327ZM430.329 326L440.122 303.6H447.546L457.338 326H449.53L442.298 307.184H445.242L438.01 326H430.329ZM436.154 322.096L438.074 316.656H448.378L450.298 322.096H436.154ZM463.882 326V309.456H457.322V303.6H477.994V309.456H471.434V326H463.882ZM488.467 311.92H498.451V317.36H488.467V311.92ZM488.979 320.304H500.179V326H481.555V303.6H499.763V309.296H488.979V320.304ZM515.407 326.512C511.972 326.512 509.295 325.584 507.375 323.728C505.455 321.872 504.495 319.269 504.495 315.92V303.6H512.047V315.696C512.047 317.403 512.356 318.619 512.975 319.344C513.593 320.048 514.425 320.4 515.471 320.4C516.537 320.4 517.369 320.048 517.967 319.344C518.585 318.619 518.895 317.403 518.895 315.696V303.6H526.319V315.92C526.319 319.269 525.359 321.872 523.439 323.728C521.519 325.584 518.841 326.512 515.407 326.512ZM531.38 326V303.6H542.164C544.255 303.6 546.058 303.941 547.572 304.624C549.108 305.307 550.292 306.288 551.124 307.568C551.956 308.827 552.372 310.32 552.372 312.048C552.372 313.776 551.956 315.269 551.124 316.528C550.292 317.765 549.108 318.715 547.572 319.376C546.058 320.037 544.255 320.368 542.164 320.368H535.572L538.932 317.264V326H531.38ZM544.788 326L539.284 317.84H547.284L552.852 326H544.788ZM538.932 318.096L535.572 314.672H541.684C542.73 314.672 543.498 314.437 543.988 313.968C544.5 313.499 544.756 312.859 544.756 312.048C544.756 311.237 544.5 310.597 543.988 310.128C543.498 309.659 542.73 309.424 541.684 309.424H535.572L538.932 306V318.096ZM565.176 326.512C563.299 326.512 561.485 326.299 559.736 325.872C557.987 325.445 556.547 324.891 555.416 324.208L557.848 318.704C558.915 319.323 560.099 319.824 561.4 320.208C562.723 320.571 564.003 320.752 565.24 320.752C565.965 320.752 566.531 320.709 566.936 320.624C567.363 320.517 567.672 320.379 567.864 320.208C568.056 320.016 568.152 319.792 568.152 319.536C568.152 319.131 567.928 318.811 567.48 318.576C567.032 318.341 566.435 318.149 565.688 318C564.963 317.829 564.163 317.659 563.288 317.488C562.413 317.296 561.528 317.051 560.632 316.752C559.757 316.453 558.947 316.059 558.2 315.568C557.475 315.077 556.888 314.437 556.44 313.648C555.992 312.837 555.768 311.835 555.768 310.64C555.768 309.253 556.152 307.995 556.92 306.864C557.709 305.712 558.872 304.795 560.408 304.112C561.965 303.429 563.896 303.088 566.2 303.088C567.715 303.088 569.208 303.248 570.68 303.568C572.152 303.888 573.475 304.379 574.648 305.04L572.376 310.512C571.267 309.957 570.189 309.541 569.144 309.264C568.12 308.987 567.117 308.848 566.136 308.848C565.411 308.848 564.835 308.912 564.408 309.04C563.981 309.168 563.672 309.339 563.48 309.552C563.309 309.765 563.224 310 563.224 310.256C563.224 310.64 563.448 310.949 563.896 311.184C564.344 311.397 564.931 311.579 565.656 311.728C566.403 311.877 567.213 312.037 568.088 312.208C568.984 312.379 569.869 312.613 570.744 312.912C571.619 313.211 572.419 313.605 573.144 314.096C573.891 314.587 574.488 315.227 574.936 316.016C575.384 316.805 575.608 317.787 575.608 318.96C575.608 320.325 575.213 321.584 574.424 322.736C573.656 323.867 572.504 324.784 570.968 325.488C569.432 326.171 567.501 326.512 565.176 326.512ZM595.513 326V309.456H588.953V303.6H609.625V309.456H603.065V326H595.513ZM624.618 326.512C622.805 326.512 621.119 326.224 619.562 325.648C618.026 325.072 616.693 324.261 615.562 323.216C614.431 322.149 613.546 320.901 612.906 319.472C612.287 318.043 611.978 316.485 611.978 314.8C611.978 313.093 612.287 311.536 612.906 310.128C613.546 308.699 614.431 307.461 615.562 306.416C616.693 305.349 618.026 304.528 619.562 303.952C621.119 303.376 622.805 303.088 624.618 303.088C626.453 303.088 628.138 303.376 629.674 303.952C631.21 304.528 632.543 305.349 633.674 306.416C634.805 307.461 635.679 308.699 636.298 310.128C636.938 311.536 637.258 313.093 637.258 314.8C637.258 316.485 636.938 318.043 636.298 319.472C635.679 320.901 634.805 322.149 633.674 323.216C632.543 324.261 631.21 325.072 629.674 325.648C628.138 326.224 626.453 326.512 624.618 326.512ZM624.618 320.4C625.322 320.4 625.973 320.272 626.57 320.016C627.189 319.76 627.722 319.397 628.17 318.928C628.639 318.437 629.002 317.851 629.258 317.168C629.514 316.464 629.642 315.675 629.642 314.8C629.642 313.925 629.514 313.147 629.258 312.464C629.002 311.76 628.639 311.173 628.17 310.704C627.722 310.213 627.189 309.84 626.57 309.584C625.973 309.328 625.322 309.2 624.618 309.2C623.914 309.2 623.253 309.328 622.634 309.584C622.037 309.84 621.503 310.213 621.034 310.704C620.586 311.173 620.234 311.76 619.978 312.464C619.722 313.147 619.594 313.925 619.594 314.8C619.594 315.675 619.722 316.464 619.978 317.168C620.234 317.851 620.586 318.437 621.034 318.928C621.503 319.397 622.037 319.76 622.634 320.016C623.253 320.272 623.914 320.4 624.618 320.4ZM646.39 326V316.176L648.118 320.688L637.942 303.6H645.91L652.79 315.28H648.15L655.094 303.6H662.39L652.278 320.688L653.942 316.176V326H646.39ZM675.724 326.512C673.911 326.512 672.226 326.224 670.668 325.648C669.132 325.072 667.799 324.261 666.668 323.216C665.538 322.149 664.652 320.901 664.012 319.472C663.394 318.043 663.084 316.485 663.084 314.8C663.084 313.093 663.394 311.536 664.012 310.128C664.652 308.699 665.538 307.461 666.668 306.416C667.799 305.349 669.132 304.528 670.668 303.952C672.226 303.376 673.911 303.088 675.724 303.088C677.559 303.088 679.244 303.376 680.78 303.952C682.316 304.528 683.65 305.349 684.78 306.416C685.911 307.461 686.786 308.699 687.404 310.128C688.044 311.536 688.364 313.093 688.364 314.8C688.364 316.485 688.044 318.043 687.404 319.472C686.786 320.901 685.911 322.149 684.78 323.216C683.65 324.261 682.316 325.072 680.78 325.648C679.244 326.224 677.559 326.512 675.724 326.512ZM675.724 320.4C676.428 320.4 677.079 320.272 677.676 320.016C678.295 319.76 678.828 319.397 679.276 318.928C679.746 318.437 680.108 317.851 680.364 317.168C680.62 316.464 680.748 315.675 680.748 314.8C680.748 313.925 680.62 313.147 680.364 312.464C680.108 311.76 679.746 311.173 679.276 310.704C678.828 310.213 678.295 309.84 677.676 309.584C677.079 309.328 676.428 309.2 675.724 309.2C675.02 309.2 674.359 309.328 673.74 309.584C673.143 309.84 672.61 310.213 672.14 310.704C671.692 311.173 671.34 311.76 671.084 312.464C670.828 313.147 670.7 313.925 670.7 314.8C670.7 315.675 670.828 316.464 671.084 317.168C671.34 317.851 671.692 318.437 672.14 318.928C672.61 319.397 673.143 319.76 673.74 320.016C674.359 320.272 675.02 320.4 675.724 320.4ZM697.257 326V309.456H690.697V303.6H711.369V309.456H704.809V326H697.257ZM711.373 326L721.165 303.6H728.589L738.381 326H730.573L723.341 307.184H726.285L719.053 326H711.373ZM717.197 322.096L719.117 316.656H729.421L731.341 322.096H717.197Z" fill="white"/>
</svg>
